<svg width="1407" height="546" xmlns="http://www.w3.org/2000/svg" xmlns:xlink="http://www.w3.org/1999/xlink" xml:space="preserve" overflow="hidden"><g transform="translate(-1530 -971)"><g><text fill="#FFFFFF" fill-opacity="1" font-family="Baloo Bhaijaan,Baloo Bhaijaan_MSFontService,sans-serif" font-style="normal" font-variant="normal" font-weight="400" font-stretch="normal" font-size="92" text-anchor="start" direction="ltr" writing-mode="lr-tb" unicode-bidi="normal" text-decoration="none" transform="matrix(1 0 0 1 2088.91 1427)">HOUSE</text><rect x="1534" y="975" width="172" height="242" fill="#D9D9D9" fill-opacity="1"/><rect x="1534" y="1217" width="172" height="110" fill="#F2F2F2" fill-opacity="1"/><rect x="1886" y="975" width="172" height="231" fill="#D0CECE" fill-opacity="1"/><rect x="1886" y="1206" width="172" height="121" fill="#D9D9D9" fill-opacity="1"/><rect x="2058" y="1206" width="174" height="121" fill="#F2F2F2" fill-opacity="1"/><path d="M2238 1326 2411 974 2584 1326Z" fill="#D9D9D9" fill-rule="evenodd" fill-opacity="1"/><path d="M2586 1326 2586 974 2932 1326Z" fill="#FFFFFF" fill-rule="evenodd" fill-opacity="1"/><path d="M2932 974 2932 1326 2586 974Z" fill="#D9D9D9" fill-rule="evenodd" fill-opacity="1"/><path d="M1705 975 1791 975C1838.5 975 1877 1029.17 1877 1096 1877 1162.83 1838.5 1217 1791 1217L1705 1217Z" fill="#D0CECE" fill-rule="evenodd" fill-opacity="1"/><path d="M1534.5 1397.5 2052.08 1397.5" stroke="#7F7F7F" stroke-width="6.875" stroke-linecap="butt" stroke-linejoin="miter" stroke-miterlimit="8" stroke-dasharray="6.875 6.875" stroke-opacity="1" fill="none" fill-rule="evenodd"/><path d="M2414.5 1397.5 2932.08 1397.5" stroke="#7F7F7F" stroke-width="6.875" stroke-linecap="butt" stroke-linejoin="miter" stroke-miterlimit="8" stroke-dasharray="6.875 6.875" stroke-opacity="1" fill="none" fill-rule="evenodd"/></g></g></svg>